<?xml version="1.0" encoding="utf-8"?>
<?xml-stylesheet type="text/xsl" href="rss1.xsl"?>
<rss version="2.0" xmlns:atom="http://www.w3.org/2005/Atom" xmlns:content="http://purl.org/rss/1.0/modules/content/" xmlns:dc="http://purl.org/dc/elements/1.1/" xmlns:media="http://search.yahoo.com/mrss/">
<channel>
 <title>Getty</title>
 <link>http://www.gettyimg.com/</link>
 <atom:link href="http://www.gettyimg.com/" rel="self" type="application/rss+xml" />

 
                <item>
                <title><![CDATA[【HD Live Performances】WEB-RiP - Miley Cyrus - Endless Summer Continued (Backyard Sessions) HULU WEB-DL EAC3 1080-fstambuk]]></title>
                <link><![CDATA[https://sharemania.us/threads/miley-cyrus-endless-summer-continued-backyard-sessions-hulu-web-dl-eac3-1080-fstambuk.227213/]]></link>
                <description><![CDATA[<article>
<blockquote class="messageText SelectQuoteContainer ugc baseHtml">
<div style="text-align: center"><img src="https://i.imgur.com/HsYo6o2.gif" class="bbCodeImage LbImage" alt="[​IMG]" data-url="https://i.imgur.com/HsYo6o2.gif" style=""><br>
<br>
<br>
​</div>
<div class="ToggleTriggerAnchor bbCodeSpoilerContainer">
<button type="button" class="button bbCodeSpoilerButton ToggleTrigger Tooltip JsOnly" data-target="> .SpoilerTarget"><span>Spoiler: <span class="SpoilerTitle">Backyard Sessions</span></span></button>
<div class="SpoilerTarget bbCodeSpoilerText">
<div class="bbCodeBlock bbCodeCode">
<div class="type">Code:</div>
<pre>SHOW                                     : Miley Cyrus: Endless Summer Vacation: Continued (Backyard Sessions)

Video
ID                                       : 1
Format                                   : AVC
Format/Info                              : Advanced Video Codec
Format profile                           : High@L4
Format settings                          : CABAC / 4 Ref Frames
Format settings, CABAC                   : Yes
Format settings, Reference frames        : 4 frames
Codec ID                                 : V_MPEG4/ISO/AVC
Duration                                 : 42 min 2 s
Bit rate                                 : 5 066 kb/s
Width                                    : 1 920 pixels
Height                                   : 1 080 pixels
Display aspect ratio                     : 16:9
Frame rate mode                          : Constant
Frame rate                               : 23.976 (24000/1001) FPS
Color space                              : YUV
Chroma subsampling                       : 4:2:0
Bit depth                                : 8 bits
Scan type                                : Progressive
Bits/(Pixel*Frame)                       : 0.102
Stream size                              : 1.49 GiB (93%)
Default                                  : Yes
Forced                                   : No
VENDOR_ID                                : [0][0][0][0]

Audio
ID                                       : 2
Format                                   : E-AC-3
Format/Info                              : Enhanced AC-3
Commercial name                          : Dolby Digital Plus
Codec ID                                 : A_EAC3
Duration                                 : 42 min 2 s
Bit rate mode                            : Constant
Bit rate                                 : 256 kb/s
Channel(s)                               : 6 channels
Channel layout                           : L R C LFE Ls Rs
Sampling rate                            : 48.0 kHz
Frame rate                               : 31.250 FPS (1536 SPF)
Bit depth                                : 32 bits
Compression mode                         : Lossy
Stream size                              : 77.0 MiB (5%)
Title                                    : English
Language                                 : English
Service kind                             : Complete Main
Default                                  : Yes
Forced                                   : No
VENDOR_ID                                : [0][0][0][0]

Text
ID                                       : 3
Format                                   : UTF-8
Codec ID                                 : S_TEXT/UTF8
Codec ID/Info                            : UTF-8 Plain Text
Duration                                 : 42 min 0 s
Title                                    : English
Writing library                          : Lavc60.3.100 srt
Language                                 : English
Default                                  : No
Forced                                   : No</pre>
</div><div style="text-align: center">​</div></div>
</div><div style="text-align: center"><br>
<br>
<br>
<div class="bbCodeBlock bbCodeVfcHH HiddenContent">
<div class="attribution type">Hidden Content:</div>
<blockquote>You must reply before you can see the hidden data contained here.</blockquote>
</div><br>
<img src="https://img2.hulu.com/user/v3/artwork/384b1dde-dcac-438d-8d51-0631472037a9?base_image_bucket_name=image_manager&amp;base_image=a86c8d17-4ef9-4287-9a3e-25d638017f4f&amp;region=US&amp;format=jpeg&amp;size=952x536" class="bbCodeImage LbImage" alt="[​IMG]" data-url="https://img2.hulu.com/user/v3/artwork/384b1dde-dcac-438d-8d51-0631472037a9?base_image_bucket_name=image_manager&amp;base_image=a86c8d17-4ef9-4287-9a3e-25d638017f4f&amp;region=US&amp;format=jpeg&amp;size=952x536" style="">​</div>
<div class="messageTextEndMarker">&nbsp;</div>
</blockquote>
</article>]]></description>
                <author><![CDATA[fstambuk]]></author>
                </item>

                
                <item>
                <title><![CDATA[【UPSCALED】Clean Bandit ft. Louisa Jonhson - Tears (2160p AI Upscale)]]></title>
                <link><![CDATA[https://sharemania.us/threads/clean-bandit-ft-louisa-jonhson-tears-2160p-ai-upscale.227214/]]></link>
                <description><![CDATA[<article>
<blockquote class="messageText SelectQuoteContainer ugc baseHtml">
thanks
<div class="messageTextEndMarker">&nbsp;</div>
</blockquote>
</article>]]></description>
                <author><![CDATA[rodriggam]]></author>
                </item>

                </channel></rss>